<?xml version="1.0" encoding="UTF-8" standalone="no" ?>
<!DOCTYPE svg PUBLIC "-//W3C//DTD SVG 1.1//EN" "http://www.w3.org/Graphics/SVG/1.1/DTD/svg11.dtd">
<svg xmlns="http://www.w3.org/2000/svg" xmlns:xlink="http://www.w3.org/1999/xlink" version="1.1" width="1080" height="1080" viewBox="0 0 1080 1080" xml:space="preserve">
<desc>Created with Fabric.js 4.2.0</desc>
<defs>
</defs>
<g transform="matrix(1 0 0 1 540 540)" id="810637d9-ef49-4eac-ab5e-7c419681ce28"  >
</g>
<g transform="matrix(1 0 0 1 540 540)" id="b8af73ef-46d7-488d-a7f7-eca26fae729e"  >
<rect style="stroke: none; stroke-width: 1; stroke-dasharray: none; stroke-linecap: butt; stroke-dashoffset: 0; stroke-linejoin: miter; stroke-miterlimit: 4; fill: rgb(0,0,0); fill-rule: nonzero; opacity: 1;" vector-effect="non-scaling-stroke"  x="-540" y="-540" rx="0" ry="0" width="1080" height="1080" />
</g>
<g transform="matrix(4.87 0 0 4.25 571.58 540.02)"  >
<path style="stroke: rgb(0,0,0); stroke-width: 0; stroke-dasharray: none; stroke-linecap: butt; stroke-dashoffset: 0; stroke-linejoin: miter; stroke-miterlimit: 4; fill: rgb(255,255,255); fill-rule: nonzero; opacity: 1;" vector-effect="non-scaling-stroke"  transform=" translate(-50.82, -15.99)" d="M 29.24 22.68 C 29.08 22.29 28.93 21.88 28.77 21.53 L 28.03 19.86 L 28 19.83 C 25.8 15.029999999999998 23.45 10.149999999999999 20.96 5.349999999999998 L 20.86 5.149999999999998 C 20.61 4.679999999999998 20.36 4.1599999999999975 20.099999999999998 3.679999999999998 C 19.779999999999998 3.109999999999998 19.47 2.4999999999999982 18.959999999999997 1.919999999999998 C 17.95334467124373 0.6911182242094869 16.448554490656026 -0.021428875250668833 14.859999999999998 -0.021428875250668833 C 13.271445509343971 -0.021428875250668833 11.766655328756265 0.6911182242094882 10.759999999999998 1.9199999999999997 C 10.289999999999997 2.499999999999998 9.939999999999998 3.1099999999999977 9.619999999999997 3.679999999999998 C 9.369999999999997 4.1999999999999975 9.119999999999997 4.709999999999998 8.859999999999998 5.179999999999998 L 8.759999999999998 5.379999999999998 C 6.309999999999998 10.179999999999998 3.919999999999998 15.059999999999999 1.719999999999998 19.86 L 1.659999999999998 19.919999999999998 C 1.439999999999998 20.439999999999998 1.179999999999998 20.979999999999997 0.9299999999999979 21.56 C 0.7699999999999979 21.91 0.6099999999999979 22.29 0.44999999999999796 22.709999999999997 C -0.4288610449264125 24.947579291721457 -0.06096117693657166 27.482918213469983 1.4176444325048885 29.37840846001785 C 2.8962500419463484 31.273898706565724 5.265800998398133 32.247819661150004 7.650000000000002 31.939999999999998 C 8.773469756079542 31.792107935036515 9.855274672948578 31.41789868706295 10.830000000000002 30.839999999999996 C 12.129999999999999 30.109999999999996 13.379999999999999 29.049999999999997 14.779999999999998 27.519999999999996 C 16.179999999999996 29.049999999999997 17.459999999999997 30.109999999999996 18.729999999999997 30.849999999999994 C 19.951304984782514 31.56684656822736 21.33435587897118 31.962495455868396 22.749999999999996 32 C 26.139848853785406 32.01407808978935 29.02075339167758 29.52583017039507 29.5 26.17 C 29.767841000689934 25.00377621455813 29.6772177612773 23.783847991695737 29.24 22.67 z M 14.879999999999999 24.34 C 13.159999999999998 22.14 12.04 20.12 11.659999999999998 18.39 C 11.502562895697576 17.74893616600542 11.46862525030655 17.08375831634131 11.559999999999999 16.43 C 11.629999999999999 15.92 11.819999999999999 15.469999999999999 12.079999999999998 15.09 C 12.679999999999998 14.22 13.729999999999999 13.68 14.879999999999999 13.68 C 15.989378161481921 13.646108001951214 17.04148670154987 14.17216227198519 17.68 15.079999999999998 C 17.94 15.48 18.13 15.92 18.19 16.43 C 18.290000000000003 17.009999999999998 18.25 17.68 18.09 18.39 C 17.71 20.09 16.59 22.130000000000003 14.879999999999999 24.34 z M 27.619999999999997 25.82 C 27.38879314484884 27.49668867820902 26.28462707764175 28.924489627183707 24.72 29.57 C 23.959999999999997 29.89 23.119999999999997 29.98 22.299999999999997 29.89 C 21.499999999999996 29.79 20.699999999999996 29.53 19.879999999999995 29.05 C 18.518504781434938 28.208496988509623 17.29424840902896 27.162988791689088 16.249999999999993 25.949999999999996 C 18.349999999999998 23.349999999999998 19.619999999999997 20.98 20.099999999999998 18.869999999999997 C 20.33 17.869999999999997 20.36 16.97 20.259999999999998 16.139999999999997 C 20.13512719630085 15.353286645424179 19.84176910341725 14.602835710140553 19.399999999999995 13.939999999999994 C 18.375731311117594 12.48048493578975 16.692735417044304 11.625867867084384 14.909999999999997 11.66 C 13.059999999999999 11.659999999999998 11.409999999999998 12.519999999999998 10.409999999999998 13.929999999999998 C 9.959839988567904 14.591160859533352 9.668906546871721 15.347587807943423 9.559999999999999 16.139999999999997 C 9.429999999999998 16.979999999999997 9.459999999999999 17.909999999999997 9.719999999999999 18.869999999999997 C 10.2 20.979999999999997 11.499999999999998 23.379999999999995 13.569999999999999 25.97 C 12.543478726536048 27.206159028169054 11.31636384067087 28.260869343292846 9.94 29.090000000000003 C 9.109999999999998 29.57 8.319999999999997 29.82 7.519999999999998 29.919999999999998 C 4.930636418163144 30.25168167015168 2.557258998250962 28.43595871920383 2.1999999999999975 25.849999999999998 C 2.0999999999999974 25.049999999999997 2.1699999999999977 24.249999999999996 2.4899999999999975 23.349999999999998 C 2.5899999999999976 23.029999999999998 2.7399999999999975 22.709999999999997 2.8999999999999977 22.33 C 3.119999999999998 21.81 3.3799999999999977 21.27 3.6299999999999977 20.729999999999997 L 3.6699999999999977 20.659999999999997 C 5.829999999999998 15.889999999999997 8.189999999999998 11.019999999999996 10.639999999999997 6.2499999999999964 L 10.739999999999997 6.049999999999996 C 10.989999999999997 5.569999999999997 11.239999999999997 5.059999999999996 11.499999999999996 4.5799999999999965 C 11.759999999999996 4.069999999999997 12.039999999999996 3.5799999999999965 12.399999999999997 3.1799999999999966 C 13.030806229995369 2.4269931948488086 13.962688568525754 1.9919885084118043 14.944999999999997 1.9919885084118043 C 15.927311431474237 1.9919885084118043 16.859193770004623 2.4269931948488086 17.489999999999995 3.1799999999999966 C 17.839999999999996 3.5799999999999965 18.129999999999995 4.069999999999997 18.389999999999993 4.5799999999999965 C 18.639999999999993 5.059999999999997 18.889999999999993 5.5799999999999965 19.149999999999995 6.049999999999996 L 19.249999999999996 6.2499999999999964 C 21.689999999999998 11.019999999999996 24.049999999999997 15.889999999999997 26.249999999999996 20.659999999999997 L 26.279999999999998 20.689999999999998 C 26.54 21.209999999999997 26.759999999999998 21.79 27.009999999999998 22.29 C 27.169999999999998 22.68 27.33 22.99 27.43 23.32 C 27.62 24.22 27.72 25.02 27.62 25.82 z M 41.54 24.12 C 40.01357156371791 24.142332869023296 38.55992186325846 23.468869843240817 37.589999999999996 22.29 C 36.51406016883231 21.049958925642866 35.94303185194716 19.45107963836446 35.989999999999995 17.81 C 35.97353698354328 16.133209617829543 36.56300467026016 14.506846964116686 37.64999999999999 13.229999999999999 C 38.667832019996034 12.036899410496481 40.16179395262446 11.355828529445288 41.72999999999999 11.37 C 43.211835494209396 11.329442452842999 44.610069063795336 12.055012305168676 45.42999999999999 13.29 L 45.529999999999994 11.719999999999999 L 48.449999999999996 11.719999999999999 L 48.449999999999996 23.8 L 45.519999999999996 23.8 L 45.419999999999995 22.04 C 44.57452015555564 23.35887929895211 43.10639946543616 24.14591307097492 41.53999999999999 24.119999999999997 z M 42.3 21.240000000000002 C 42.879999999999995 21.240000000000002 43.39 21.080000000000002 43.87 20.790000000000003 C 44.309999999999995 20.470000000000002 44.669999999999995 20.050000000000004 44.949999999999996 19.540000000000003 C 45.199999999999996 19.03 45.33 18.42 45.33 17.740000000000002 C 45.40930349270623 16.538550055044514 44.850975949909156 15.383913503953973 43.86 14.700000000000003 C 42.905091809772344 14.10503619551022 41.69490819022766 14.10503619551022 40.74 14.700000000000003 C 40.300000000000004 15.020000000000003 39.940000000000005 15.440000000000003 39.660000000000004 15.950000000000003 C 39.395553710461094 16.512444447218087 39.26546391380975 17.128659273461313 39.28 17.75 C 39.20069650729377 18.951449944955492 39.759024050090844 20.106086496046032 40.75 20.790000000000003 C 41.22 21.080000000000002 41.73 21.240000000000002 42.3 21.240000000000002 z M 53.45 8.46 C 53.45 8.81 53.39 9.13 53.230000000000004 9.39 C 53.07000000000001 9.64 52.85 9.870000000000001 52.56 10.030000000000001 C 52.27 10.190000000000001 51.96 10.250000000000002 51.64 10.250000000000002 C 51.32 10.250000000000002 51 10.190000000000001 50.71 10.030000000000001 C 50.43573040732084 9.877310860767189 50.20508445055137 9.65699233489784 50.04 9.39 C 49.88513359251242 9.105131665948488 49.80918175909369 8.784062551951145 49.82 8.46 C 49.82 8.100000000000001 49.89 7.780000000000001 50.04 7.530000000000001 C 50.199999999999996 7.230000000000001 50.43 7.050000000000001 50.71 6.8900000000000015 C 51 6.730000000000001 51.31 6.660000000000001 51.64 6.660000000000001 C 52.287524025244096 6.645079247574126 52.895203411056386 6.971706917448233 53.24 7.520000000000001 C 53.38552981430435 7.811547639383614 53.4576202124392 8.134237992939639 53.45 8.46 z M 50.050000000000004 23.76 L 50.050000000000004 11.7 L 53.230000000000004 11.7 L 53.230000000000004 23.78 L 50.040000000000006 23.78 z M 61.730000000000004 14.860000000000001 L 61.730000000000004 14.9 C 61.580000000000005 14.83 61.38 14.8 61.230000000000004 14.77 C 61.03 14.73 60.870000000000005 14.73 60.68000000000001 14.73 C 59.790000000000006 14.73 59.120000000000005 14.99 58.68000000000001 15.530000000000001 C 58.20000000000001 16.080000000000002 57.980000000000004 16.85 57.980000000000004 17.84 L 57.980000000000004 23.77 L 54.790000000000006 23.77 L 54.790000000000006 11.69 L 57.720000000000006 11.69 L 57.82000000000001 13.52 C 58.14000000000001 12.879999999999999 58.52000000000001 12.399999999999999 59.06000000000001 12.04 C 59.597131721835 11.69021569936786 60.22948388089135 11.515532782501465 60.87000000000001 11.54 C 61.10000000000001 11.54 61.320000000000014 11.559999999999999 61.51000000000001 11.6 C 61.610000000000014 11.629999999999999 61.67000000000001 11.629999999999999 61.73000000000001 11.66 L 61.73000000000001 14.86 z M 63.010000000000005 23.76 L 63.010000000000005 6.74 L 66.19000000000001 6.74 L 66.19000000000001 13.24 C 66.64000000000001 12.66 67.15 12.21 67.79 11.86 C 69.87566235077679 10.837401056292215 72.39050329141345 11.379250008962286 73.87 13.169999999999996 C 74.94830886442777 14.412605353240188 75.51949758713475 16.01550370633665 75.47 17.660000000000004 C 75.48646301645671 19.336790382170456 74.89699532973982 20.963153035883312 73.81 22.240000000000002 C 72.79216798000395 23.43310058950352 71.29820604737553 24.114171470554712 69.73 24.1 C 68.2481645057906 24.140557547157 66.84993093620466 23.414987694831325 66.03 22.18 L 65.93 23.75 L 63.010000000000005 23.78 z M 69.16000000000001 21.240000000000002 C 69.73 21.240000000000002 70.24000000000001 21.080000000000002 70.72000000000001 20.790000000000003 C 71.16000000000001 20.470000000000002 71.52000000000001 20.050000000000004 71.80000000000001 19.540000000000003 C 72.06000000000002 19.03 72.18 18.42 72.18 17.740000000000002 C 72.18 17.07 72.06 16.46 71.80000000000001 15.950000000000003 C 71.53739075091393 15.458234484743704 71.16843979905055 15.031207920087008 70.72000000000001 14.700000000000003 C 69.76509180977236 14.105036195510218 68.55490819022766 14.105036195510218 67.60000000000001 14.700000000000003 C 67.15 15.020000000000003 66.80000000000001 15.440000000000003 66.51 15.950000000000003 C 66.2455537104611 16.51244444721809 66.11546391380975 17.128659273461317 66.13000000000001 17.750000000000004 C 66.05069650729378 18.951449944955492 66.60902405009085 20.106086496046032 67.60000000000001 20.790000000000003 C 68.07000000000001 21.080000000000002 68.58000000000001 21.240000000000002 69.16000000000001 21.240000000000002 z M 76.67000000000002 23.770000000000003 L 76.67000000000002 11.69 L 79.60000000000002 11.69 L 79.70000000000002 13.26 C 80.44979015582052 12.03448976737456 81.80451980440017 11.311201904149836 83.24000000000002 11.37 C 84.88803757229573 11.341533163054027 86.39289206697481 12.30274912300611 87.06000000000002 13.809999999999999 C 87.41000000000001 14.569999999999999 87.60000000000002 15.509999999999998 87.60000000000002 16.56 L 87.60000000000002 23.799999999999997 L 84.41000000000003 23.799999999999997 L 84.41000000000003 16.979999999999997 C 84.41000000000003 16.139999999999997 84.22000000000003 15.479999999999997 83.84000000000003 14.989999999999997 C 83.46000000000004 14.509999999999996 82.94000000000003 14.249999999999996 82.28000000000003 14.249999999999996 C 81.80000000000003 14.249999999999996 81.38000000000002 14.349999999999996 81.01000000000003 14.569999999999997 C 80.66000000000004 14.799999999999997 80.37000000000003 15.089999999999996 80.15000000000003 15.499999999999996 C 79.92756323090111 15.914444543620434 79.8172547140948 16.379808598897096 79.83000000000004 16.849999999999998 L 79.83000000000004 23.769999999999996 L 76.67000000000004 23.769999999999996 z M 89.19000000000001 23.770000000000003 L 89.19000000000001 6.73 L 92.38000000000001 6.73 L 92.38000000000001 13.23 C 93.25606996827533 12.047459346479418 94.63831695635177 11.347071462440688 96.11000000000001 11.34 C 97.6364284362821 11.317667130976705 99.09007813674155 11.991130156759183 100.06000000000002 13.169999999999998 C 101.13061759185135 14.412518777461374 101.69777642190004 16.01055120426525 101.65000000000002 17.64999999999999 C 101.66736614131112 19.326944309165214 101.07778734936139 20.953613506231353 99.99000000000002 22.229999999999997 C 98.97216798000397 23.423100589503516 97.47820604737555 24.104171470554707 95.91000000000003 24.089999999999996 C 94.42816450579062 24.130557547156997 93.02993093620468 23.40498769483132 92.21000000000002 22.169999999999995 L 92.12000000000002 23.739999999999995 L 89.19000000000001 23.769999999999996 z M 95.37 21.240000000000002 C 95.95 21.240000000000002 96.46000000000001 21.080000000000002 96.93 20.790000000000003 C 97.38000000000001 20.470000000000002 97.73 20.050000000000004 98.02000000000001 19.540000000000003 C 98.27000000000001 19.03 98.4 18.42 98.4 17.740000000000002 C 98.47930349270624 16.538550055044514 97.92097594990916 15.383913503953973 96.93 14.700000000000003 C 95.97509180977235 14.105036195510218 94.76490819022766 14.105036195510218 93.81 14.700000000000003 C 93.37 15.020000000000003 93.01 15.440000000000003 92.73 15.950000000000003 C 92.45087324590189 16.507416507724265 92.32000384191606 17.127324210815082 92.35000000000001 17.75 C 92.27069650729378 18.951449944955492 92.82902405009085 20.106086496046032 93.82000000000001 20.790000000000003 C 94.29 21.080000000000002 94.77000000000001 21.240000000000002 95.37 21.240000000000002 z" stroke-linecap="round" />
</g>
<g transform="matrix(1 0 0 1 684.64 537.13)"  >
<path style="stroke: rgb(255,255,255); stroke-width: 25.8; stroke-dasharray: none; stroke-linecap: round; stroke-dashoffset: 0; stroke-linejoin: round; stroke-miterlimit: 10; fill: none; fill-rule: nonzero; opacity: 1;" vector-effect="non-scaling-stroke"  transform=" translate(-684.64, -537.13)" d="M 560.658216783972 555.3640766668209 Q 560.684016783972 555.3898766668209 566.8399674507003 556.6210668001665 Q 572.9959181174287 557.8522569335123 586.539009584231 560.3146372002036 Q 600.0821010510334 562.7770174668949 624.7059037179469 565.2393977335862 Q 649.3297063848603 567.7017780002776 678.8782695851564 573.857728667006 Q 708.4268327854526 580.0136793337343 725.663494652292 581.24486946708 Q 742.9001565191314 582.4760596004257 745.3625367858227 582.4760596004257 Q 747.824917052514 582.4760596004257 750.2872973192054 582.4760596004257 Q 752.7496775858968 582.4760596004257 755.2120578525881 582.4760596004257 Q 757.6744381192794 582.4760596004257 758.9056282526251 581.24486946708 Q 760.1368183859707 580.0136793337343 763.8303887860078 577.5512990670429 Q 767.5239591860449 575.0889188003516 772.4487197194276 566.470587866932 Q 777.3734802528103 557.8522569335123 782.298240786193 552.9274964001296 Q 787.2230013195756 548.0027358667469 787.2230013195756 546.7715457334012 Q 787.2230013195756 545.5403556000556 787.2230013195756 541.8467852000185 Q 787.2230013195756 538.1532147999815 777.3734802528102 535.6908345332902 Q 767.5239591860449 533.2284542665989 757.6744381192794 531.9972641332531 Q 747.824917052514 530.7660739999075 737.9753959857487 530.7660739999075 Q 728.1258749189834 530.7660739999075 717.0451637188723 530.7660739999075 Q 705.9644525187612 530.7660739999075 701.0396919853786 530.7660739999075 Q 696.1149314519959 530.7660739999075 692.4213610519589 530.7660739999075 Q 688.7277906519219 530.7660739999075 687.4966005185761 530.7660739999075 Q 686.2654103852304 530.7660739999075 683.803030118539 530.7660739999075 Q 681.3406498518477 530.7660739999075 683.803030118539 530.7660739999075 Q 686.2654103852304 530.7660739999075 696.1149314519957 528.303693733216 Q 705.9644525187612 525.8413134665248 731.8194453190204 520.916552933142 Q 757.6744381192794 515.9917923997593 792.1477618529583 508.6046515996853 Q 826.6210855866372 501.2175107996113 837.7017967867482 499.98632066626567 Q 848.7825079868592 498.75513053291996 857.4008389202789 498.75513053291996 Q 866.0191698536987 498.75513053291996 869.7127402537357 498.75513053291996 Q 873.4063106537726 498.75513053291996 874.6375007871184 498.75513053291996 Q 875.868690920464 498.75513053291996 877.0998810538097 498.75513053291996 Q 878.3310711871554 498.75513053291996 857.4008389202789 504.9110811996483 Q 836.4706066534025 511.0670318663767 803.2284730530694 518.4541726664507 Q 769.9863394527362 525.8413134665248 741.6689663857858 529.5348838665618 Q 713.3515933188353 533.2284542665989 705.9644525187612 534.4596443999444 Q 698.5773117186872 535.6908345332901 696.1149314519957 535.6908345332901 Q 693.6525511853044 535.6908345332901 692.4213610519588 535.6908345332901 Q 691.1901709186131 535.6908345332901 689.9589807852675 536.9220246666357 Q 688.7277906519219 538.1532147999815 688.7277906519219 539.3844049333271 Q 688.7277906519219 540.6155950666728 688.7277906519219 541.8467852000185 Q 688.7277906519219 543.0779753333642 691.1901709186131 544.3091654667098 Q 693.6525511853044 545.5403556000556 701.0396919853786 550.4651161334382 Q 708.4268327854526 555.3898766668209 719.5075439855636 561.5458273335493 Q 730.5882551856746 567.7017780002776 739.2065861190943 571.3953484003146 Q 747.824917052514 575.0889188003516 756.4432479859338 580.0136793337343 Q 765.0615789193536 584.938439867117 769.9863394527363 586.1696300004627 Q 774.9110999861189 587.4008201338083 776.1422901194646 587.4008201338083 Q 777.3734802528103 587.4008201338083 781.0670506528472 587.4008201338083 Q 784.7606210528842 587.4008201338083 785.9918111862298 587.4008201338083 Q 787.2230013195756 587.4008201338083 788.4541914529213 587.4008201338083 Q 789.685381586267 587.4008201338083 792.1477618529583 582.4760596004256 Q 794.6101421196496 577.5512990670429 797.072522386341 572.6265385336603 Q 799.5349026530323 567.7017780002776 801.9972829197236 561.5458273335493 Q 804.459663186415 555.3898766668209 804.459663186415 554.1586865334752 Q 804.459663186415 552.9274964001295 805.6908533197607 552.9274964001295 Q 806.9220434531063 552.9274964001295 806.9220434531063 554.1586865334752 Q 806.9220434531063 555.3898766668209 806.9220434531063 564.0082076002407 Q 806.9220434531063 572.6265385336603 808.153233586452 576.3201089336974 Q 809.3844237197976 580.0136793337343 809.3844237197976 583.7072497337713 Q 809.3844237197976 587.4008201338083 810.6156138531433 588.632010267154 Q 811.846803986489 589.8632004004996 811.846803986489 591.0943905338454 Q 811.846803986489 592.325580667191 813.0779941198348 592.325580667191 Q 814.3091842531804 592.325580667191 814.3091842531804 588.6320102671541 Q 814.3091842531804 584.938439867117 814.3091842531804 580.0136793337343 Q 814.3091842531804 575.0889188003516 813.0779941198348 575.0889188003516 Q 811.846803986489 575.0889188003516 810.6156138531433 570.1641582669689 Q 809.3844237197976 565.2393977335862 806.9220434531063 564.0082076002406 Q 804.459663186415 562.7770174668949 801.9972829197236 561.5458273335493 Q 799.5349026530323 560.3146372002036 798.3037125196865 559.083447066858 Q 797.0725223863409 557.8522569335123 795.8413322529952 557.8522569335123 Q 794.6101421196496 557.8522569335123 793.378951986304 557.8522569335123 Q 792.1477618529583 557.8522569335123 790.9165717196126 556.6210668001665 Q 789.685381586267 555.3898766668209 788.4541914529213 550.4651161334382 Q 787.2230013195756 545.5403556000556 787.2230013195756 534.4596443999444 Q 787.2230013195756 523.3789331998333 785.9918111862298 501.21751079961126 Q 784.7606210528842 479.0560883993892 781.0670506528472 458.12585613251275 Q 777.3734802528103 437.1956238656363 776.1422901194646 435.9644337322907 Q 774.9110999861189 434.7332435989451 773.6799098527731 433.5020534655994 Q 772.4487197194275 432.27086333225367 773.6799098527731 434.733243598945 Q 774.9110999861189 437.1956238656363 777.3734802528102 442.12038439901903 Q 779.8358605195016 447.0451449324018 785.9918111862299 453.20109559913016 Q 792.1477618529583 459.3570462658585 803.2284730530694 470.4377574659695 Q 814.3091842531804 481.51846866608054 819.2339447865631 483.9808489327719 Q 824.1587053199457 486.44322919946325 830.3146559866741 491.36798973284596 Q 836.4706066534025 496.29275026622867 838.9329869200939 496.29275026622867 Q 841.3953671867853 496.29275026622867 842.6265573201308 497.5239403995743 Q 843.8577474534765 498.75513053291996 845.0889375868221 498.75513053291996 Q 846.3201277201678 498.75513053291996 846.3201277201678 497.5239403995743 Q 846.3201277201678 496.29275026622867 846.3201277201678 497.5239403995743 Q 846.3201277201678 498.75513053291996 846.3201277201678 503.6798910663027 Q 846.3201277201678 508.6046515996854 846.3201277201678 519.6853627997964 Q 846.3201277201678 530.7660739999075 843.8577474534766 545.5403556000556 Q 841.3953671867853 560.3146372002036 840.1641770534395 570.164158266969 Q 838.9329869200939 580.0136793337343 837.7017967867482 582.4760596004257 Q 836.4706066534025 584.938439867117 836.4706066534025 586.1696300004627 Q 836.4706066534025 587.4008201338083 835.2394165200567 587.4008201338083 Q 834.008226386711 587.4008201338083 831.5458461200197 587.4008201338083 Q 829.0834658533284 587.4008201338083 822.9275151866001 576.3201089336973 Q 816.7715645198717 565.2393977335862 811.846803986489 555.3898766668209 Q 806.9220434531063 545.5403556000556 801.9972829197236 534.4596443999444 Q 797.0725223863409 523.3789331998333 792.1477618529582 514.7606022664137 Q 787.2230013195756 506.142271332994 785.9918111862298 506.142271332994 Q 784.7606210528842 506.142271332994 784.7606210528842 504.9110811996483 Q 784.7606210528842 503.6798910663026 784.7606210528842 502.44870093295697 Q 784.7606210528842 501.2175107996113 785.9918111862298 501.2175107996113 Q 787.2230013195756 501.2175107996113 787.2230013195756 499.98632066626567 Q 787.2230013195756 498.75513053291996 787.2230013195756 497.5239403995743 Q 787.2230013195756 496.29275026622867 787.2230013195756 495.06156013288296 Q 787.2230013195756 493.83036999953725 787.2230013195756 491.3679897328459 Q 787.2230013195756 488.9056094661546 787.2230013195756 491.3679897328459 Q 787.2230013195756 493.83036999953725 789.6853815862669 498.7551305329199 Q 792.1477618529583 503.6798910663026 794.6101421196496 517.2229825331051 Q 797.0725223863409 530.7660739999075 798.3037125196865 541.8467852000185 Q 799.5349026530323 552.9274964001295 800.7660927863781 557.8522569335122 Q 801.9972829197237 562.7770174668949 801.9972829197237 566.470587866932 Q 801.9972829197237 570.164158266969 801.9972829197237 572.6265385336603 Q 801.9972829197237 575.0889188003516 801.9972829197237 577.5512990670429 Q 801.9972829197237 580.0136793337343 800.7660927863781 580.0136793337343 Q 799.5349026530323 580.0136793337343 797.072522386341 577.5512990670429 Q 794.6101421196496 575.0889188003516 768.7551493193905 556.6210668001665 Q 742.9001565191314 538.1532147999815 725.663494652292 520.916552933142 Q 708.4268327854526 503.6798910663026 692.4213610519589 488.9056094661546 Q 676.4158893184651 474.13132786600653 672.7223189184281 470.4377574659695 Q 669.028748518391 466.74418706593246 667.7975583850454 465.5129969325868 Q 666.5663682516997 464.28180679924117 666.5663682516997 465.5129969325868 Q 666.5663682516997 466.74418706593246 666.5663682516997 469.2065673326239 Q 666.5663682516997 471.66894759931523 666.5663682516997 475.36251799935224 Q 666.5663682516997 479.0560883993892 667.7975583850454 492.5991798661916 Q 669.028748518391 506.142271332994 672.7223189184281 512.2982219997224 Q 676.4158893184651 518.4541726664507 677.6470794518108 522.1477430664877 Q 678.8782695851564 525.8413134665248 680.1094597185021 528.303693733216 Q 681.3406498518477 530.7660739999075 681.3406498518477 531.9972641332531 Q 681.3406498518477 533.2284542665989 681.3406498518477 534.4596443999444 Q 681.3406498518477 535.6908345332901 681.3406498518477 536.9220246666357 Q 681.3406498518477 538.1532147999815 682.5718399851935 540.6155950666728 Q 683.8030301185391 543.0779753333642 685.0342202518848 551.696306266784 Q 686.2654103852304 560.3146372002036 687.4966005185761 567.7017780002776 Q 688.7277906519219 575.0889188003516 691.1901709186131 586.1696300004627 Q 693.6525511853044 597.2503412005738 696.1149314519957 610.7934326673761 Q 698.5773117186872 624.3365241341785 698.5773117186872 628.0300945342156 Q 698.5773117186872 631.7236649342526 699.8085018520328 634.1860452009439 Q 701.0396919853786 636.6484254676352 701.0396919853786 635.4172353342896 Q 701.0396919853786 634.1860452009439 699.8085018520328 634.1860452009439 Q 698.5773117186872 634.1860452009439 697.3461215853415 630.4924748009068 Q 696.1149314519959 626.7989044008698 688.7277906519219 616.9493833341045 Q 681.3406498518477 607.0998622673392 670.2599386517368 591.0943905338454 Q 659.1792274516257 575.0889188003516 643.173755718132 554.1586865334752 Q 627.1682839846383 533.2284542665989 613.6251925178358 519.6853627997964 Q 600.0821010510334 506.142271332994 598.8509109176878 506.142271332994 Q 597.6197207843421 506.142271332994 595.1573405176507 506.142271332994 Q 592.6949602509594 506.142271332994 592.6949602509594 511.0670318663767 Q 592.6949602509594 515.9917923997593 592.6949602509594 523.3789331998335 Q 592.6949602509594 530.7660739999075 593.9261503843051 540.6155950666728 Q 595.1573405176507 550.4651161334382 595.1573405176507 556.6210668001665 Q 595.1573405176507 562.7770174668949 595.1573405176507 566.470587866932 Q 595.1573405176507 570.164158266969 595.1573405176507 572.6265385336603 Q 595.1573405176507 575.0889188003516 592.6949602509594 575.0889188003516 Q 590.232579984268 575.0889188003516 584.0766293175396 570.1641582669689 Q 577.9206786508113 565.2393977335862 574.2271082507743 561.5458273335493 Q 570.5335378507373 557.8522569335123 563.1463970506633 552.9274964001296 Q 555.7592562505893 548.0027358667469 553.296875983898 546.7715457334012 Q 550.8344957172066 545.5403556000556 549.6033055838609 544.3091654667098 Q 548.3721154505153 543.0779753333642 548.3721154505153 544.3091654667098 Q 548.3721154505153 545.5403556000556 548.3721154505153 546.7715457334012 Q 548.3721154505153 548.0027358667469 548.3721154505153 546.7715457334012 Q 548.3721154505153 545.5403556000556 547.1409253171696 544.3091654667098 Q 545.9097351838238 543.0779753333642 540.9849746504412 534.4596443999444 Q 536.0602141170585 525.8413134665248 532.3666437170215 520.916552933142 Q 528.6730733169844 515.9917923997593 526.2106930502931 511.0670318663767 Q 523.7483127836018 506.142271332994 522.5171226502562 504.9110811996483 Q 521.2859325169104 503.6798910663026 520.0547423835648 502.44870093295697 Q 518.8235522502191 501.2175107996113 520.0547423835648 503.6798910663027 Q 521.2859325169104 506.142271332994 522.5171226502562 515.9917923997593 Q 523.7483127836018 525.8413134665248 527.4418831836388 536.9220246666358 Q 531.1354535836758 548.0027358667469 533.5978338503671 556.6210668001665 Q 536.0602141170585 565.2393977335862 537.2914042504042 571.3953484003146 Q 538.5225943837498 577.5512990670429 538.5225943837498 580.0136793337343 Q 538.5225943837498 582.4760596004257 538.5225943837498 583.7072497337714 Q 538.5225943837498 584.938439867117 538.5225943837498 586.1696300004627 Q 538.5225943837498 587.4008201338083 537.2914042504042 587.4008201338083 Q 536.0602141170585 587.4008201338083 531.1354535836758 581.24486946708 Q 526.2106930502931 575.0889188003516 521.2859325169104 570.1641582669689 Q 516.3611719835277 565.2393977335862 511.43641145014504 560.3146372002036 Q 506.5116509167624 555.3898766668209 504.049270650071 554.1586865334752 Q 501.5868903833796 552.9274964001295 501.5868903833796 551.6963062667838 Q 501.5868903833796 550.4651161334382 501.5868903833796 552.9274964001295 Q 501.5868903833796 555.3898766668209 501.5868903833796 556.6210668001665 Q 501.5868903833796 557.8522569335123 501.5868903833796 561.5458273335493 Q 501.5868903833796 565.2393977335862 501.5868903833796 566.470587866932 Q 501.5868903833796 567.7017780002776 501.5868903833796 565.2393977335862 Q 501.5868903833796 562.7770174668949 499.12451011668827 560.3146372002036 Q 496.662129849997 557.8522569335123 494.1997495833056 555.3898766668209 Q 491.73736931661426 552.9274964001295 491.73736931661426 551.6963062667838 Q 491.73736931661426 550.4651161334382 491.73736931661426 549.2339260000925 Q 491.73736931661426 548.0027358667469 492.96855944995997 548.0027358667469 Q 494.1997495833057 548.0027358667469 495.4309397166513 548.0027358667469 Q 496.662129849997 548.0027358667469 497.8933199833426 550.4651161334382 Q 499.1245101166883 552.9274964001295 500.355700250034 554.1586865334752 Q 501.5868903833796 555.3898766668209 502.81808051672533 555.3898766668209 Q 504.04927065007104 555.3898766668209 504.04927065007104 554.1586865334752 Q 504.04927065007104 552.9274964001295 504.04927065007104 551.6963062667838 Q 504.04927065007104 550.4651161334382 502.81808051672533 545.5403556000555 Q 501.5868903833796 540.6155950666728 501.5868903833796 538.1532147999815 Q 501.5868903833796 535.6908345332901 501.5868903833796 530.7660739999073 Q 501.5868903833796 525.8413134665248 501.5868903833796 524.610123333179 Q 501.5868903833796 523.3789331998333 502.81808051672533 523.3789331998333 Q 504.04927065007104 523.3789331998333 505.28046078341674 523.3789331998333 Q 506.5116509167624 523.3789331998333 507.74284105010804 523.3789331998333 Q 508.9740311834537 523.3789331998333 510.20522131679934 523.3789331998333 Q 511.43641145014504 523.3789331998333 513.8987917168364 524.610123333179 Q 516.3611719835277 525.8413134665248 517.5923621168733 525.8413134665248 Q 518.8235522502191 525.8413134665248 520.0547423835648 525.8413134665248 Q 521.2859325169104 525.8413134665248 521.2859325169104 527.0725035998704 Q 521.2859325169104 528.303693733216 524.9795029169475 529.5348838665618 Q 528.6730733169844 530.7660739999075 529.9042634503301 531.9972641332531 Q 531.1354535836758 533.2284542665989 532.3666437170215 533.2284542665989 Q 533.5978338503671 533.2284542665989 537.2914042504042 534.4596443999444 Q 540.9849746504411 535.6908345332901 545.9097351838238 536.9220246666357 Q 550.8344957172066 538.1532147999815 555.7592562505893 538.1532147999815 Q 560.684016783972 538.1532147999815 563.1463970506633 538.1532147999815 Q 565.6087773173546 538.1532147999815 568.071157584046 538.1532147999815 Q 570.5335378507373 538.1532147999815 571.764727984083 538.1532147999815 Q 572.9959181174287 538.1532147999815 575.45829838412 538.1532147999815 Q 577.9206786508113 538.1532147999815 579.1518687841569 538.1532147999815 Q 580.3830589175027 538.1532147999815 580.3830589175027 539.3844049333271 Q 580.3830589175027 540.6155950666728 580.3830589175027 541.8467852000185 Q 580.3830589175027 543.0779753333642 580.3830589175027 544.3091654667098 Q 580.3830589175027 545.5403556000556 580.3830589175027 546.7715457334012 Q 580.3830589175027 548.0027358667469 580.3830589175027 551.696306266784 Q 580.3830589175027 555.3898766668209 580.3830589175027 567.7017780002776 Q 580.3830589175027 580.0136793337343 580.3830589175027 587.4008201338083 Q 580.3830589175027 594.7879609338825 580.3830589175027 600.9439116006108 Q 580.3830589175027 607.0998622673392 580.3830589175027 609.5622425340305 Q 580.3830589175027 612.0246228007218 580.3830589175027 613.2558129340674 Q 580.3830589175027 614.4870030674131 579.1518687841569 614.4870030674131 Q 577.9206786508113 614.4870030674131 576.6894885174656 609.5622425340305 Q 575.45829838412 604.6374820006478 575.45829838412 578.7824892003887 Q 575.45829838412 552.9274964001295 575.45829838412 519.6853627997964 Q 575.45829838412 486.44322919946325 576.6894885174656 466.7441870659325 Q 577.9206786508113 447.0451449324018 576.6894885174656 439.65800413232773 Q 575.45829838412 432.27086333225367 575.45829838412 431.03967319890796 Q 575.45829838412 429.8084830655623 575.45829838412 428.57729293221666 Q 575.45829838412 427.346102798871 575.45829838412 429.8084830655623 Q 575.45829838412 432.27086333225367 575.45829838412 433.5020534655994 Q 575.45829838412 434.7332435989451 575.45829838412 435.9644337322907 Q 575.45829838412 437.1956238656363 575.45829838412 442.12038439901903 Q 575.45829838412 447.0451449324018 575.45829838412 455.6634758658215 Q 575.45829838412 464.28180679924117 575.45829838412 471.6689475993152 Q 575.45829838412 479.0560883993892 575.45829838412 481.5184686660806 Q 575.45829838412 483.98084893277195 575.45829838412 485.2120390661176 Q 575.45829838412 486.44322919946325 574.2271082507743 486.44322919946325 Q 572.9959181174287 486.44322919946325 571.764727984083 486.44322919946325 Q 570.5335378507373 486.44322919946325 570.5335378507373 487.67441933280895 Q 570.5335378507373 488.9056094661546 570.5335378507373 492.59917986619166 Q 570.5335378507373 496.29275026622867 570.5335378507373 511.06703186637674 Q 570.5335378507373 525.8413134665248 571.764727984083 551.6963062667838 Q 572.9959181174287 577.5512990670429 572.9959181174287 591.0943905338454 Q 572.9959181174287 604.6374820006478 572.9959181174287 619.4117636007959 Q 572.9959181174287 634.1860452009439 571.764727984083 639.1108057343266 Q 570.5335378507373 644.0355662677093 569.3023477173916 644.0355662677093 Q 568.071157584046 644.0355662677093 566.8399674507002 645.266756401055 Q 565.6087773173546 646.4979465344006 564.3775871840089 646.4979465344006 Q 563.1463970506633 646.4979465344006 561.9152069173176 645.266756401055 Q 560.684016783972 644.0355662677093 556.9904463839349 630.4924748009068 Q 553.2968759838978 616.9493833341045 552.0656858505522 600.9439116006108 Q 550.8344957172066 584.938439867117 550.8344957172066 571.3953484003147 Q 550.8344957172066 557.8522569335123 549.6033055838609 555.3898766668209 Q 548.3721154505153 552.9274964001295 548.3721154505153 551.6963062667838 Q 548.3721154505153 550.4651161334382 548.3721154505153 549.2339260000925 Q 548.3721154505153 548.0027358667469 548.3721154505153 546.7715457334012 Q 548.3721154505153 545.5403556000556 548.3721154505153 544.3091654667098 Q 548.3721154505153 543.0779753333642 548.3721154505153 541.8467852000185 Q 548.3721154505153 540.6155950666728 548.3721154505153 539.3844049333271 Q 548.3721154505153 538.1532147999815 548.3721154505153 536.9220246666357 Q 548.3721154505153 535.6908345332901 547.1409253171696 535.6908345332901 Q 545.9097351838238 535.6908345332901 545.9097351838238 534.4596443999444 Q 545.9097351838238 533.2284542665989 545.9097351838238 531.9972641332531 Q 545.9097351838238 530.7660739999075 545.9097351838238 529.5348838665618 Q 545.9097351838238 528.303693733216 547.1409253171696 530.7660739999075 Q 548.3721154505153 533.2284542665989 549.6033055838609 535.6908345332902 Q 550.8344957172066 538.1532147999815 552.0656858505522 543.0779753333642 Q 553.2968759838978 548.0027358667469 555.7592562505893 551.696306266784 Q 558.2216365172806 555.3898766668209 559.4528266506263 559.0834470668578 Q 560.684016783972 562.7770174668949 561.9152069173176 564.0082076002406 Q 563.1463970506633 565.2393977335862 564.3775871840089 565.2393977335862 Q 565.6087773173546 565.2393977335862 568.071157584046 565.2393977335862 Q 570.5335378507373 565.2393977335862 571.764727984083 562.7770174668949 Q 572.9959181174287 560.3146372002036 574.2271082507743 559.083447066858 Q 575.45829838412 557.8522569335123 576.6894885174656 556.6210668001665 Q 577.9206786508113 555.3898766668209 579.1518687841569 555.3898766668209 Q 580.3830589175027 555.3898766668209 581.6142490508483 555.3898766668209 Q 582.845439184194 555.3898766668209 585.3078194508853 554.1586865334752 Q 587.7701997175767 552.9274964001295 593.9261503843051 549.2339260000925 Q 600.0821010510334 545.5403556000556 619.7811431845641 540.6155950666728 Q 639.480185318095 535.6908345332901 659.1792274516257 529.5348838665617 Q 678.8782695851564 523.3789331998333 682.5718399851935 520.916552933142 Q 686.2654103852304 518.4541726664507 691.1901709186131 518.4541726664507 Q 696.1149314519959 518.4541726664507 698.5773117186873 517.2229825331051 Q 701.0396919853786 515.9917923997593 702.2708821187242 515.9917923997593 Q 703.5020722520699 515.9917923997593 704.7332623854155 515.9917923997593 Q 705.9644525187612 515.9917923997593 707.1956426521069 515.9917923997593 Q 708.4268327854526 515.9917923997593 709.6580229187982 515.9917923997593 Q 710.8892130521439 515.9917923997593 709.6580229187982 515.9917923997593 Q 708.4268327854526 515.9917923997593 707.1956426521069 514.7606022664137 Q 705.9644525187612 513.529412133068 699.8085018520328 512.2982219997224 Q 693.6525511853044 511.0670318663767 683.803030118539 507.3734614663397 Q 673.9535090517737 503.6798910663026 657.9480373182801 497.52394039957426 Q 641.9425655847863 491.3679897328459 635.7866149180579 488.9056094661546 Q 629.6306642513296 486.44322919946325 625.9370938512925 486.44322919946325 Q 622.2435234512556 486.44322919946325 618.5499530512186 486.44322919946325 Q 614.8563826511815 486.44322919946325 613.6251925178358 486.44322919946325 Q 612.3940023844901 486.44322919946325 611.1628122511445 486.44322919946325 Q 609.9316221177988 486.44322919946325 608.7004319844532 486.44322919946325 Q 607.4692418511074 486.44322919946325 606.2380517177618 486.44322919946325 Q 605.0068615844161 486.44322919946325 605.0068615844161 487.67441933280895 Q 605.0068615844161 488.9056094661546 605.0068615844161 490.13679959950025 Q 605.0068615844161 491.3679897328459 606.2380517177618 493.8303699995373 Q 607.4692418511074 496.29275026622867 608.7004319844532 496.29275026622867 Q 609.9316221177988 496.29275026622867 614.8563826511815 501.2175107996113 Q 619.7811431845641 506.142271332994 624.7059037179469 512.2982219997224 Q 629.6306642513296 518.4541726664507 637.0178050514036 522.1477430664877 Q 644.4049458514776 525.8413134665248 651.7920866515517 530.7660739999073 Q 659.1792274516257 535.6908345332901 664.1039879850084 536.9220246666357 Q 669.028748518391 538.1532147999815 671.4911287850823 539.3844049333271 Q 673.9535090517737 540.6155950666728 677.6470794518107 540.6155950666728 Q 681.3406498518477 540.6155950666728 683.803030118539 540.6155950666728 Q 686.2654103852304 540.6155950666728 688.7277906519219 540.6155950666728 Q 691.1901709186131 540.6155950666728 692.4213610519588 539.3844049333271 Q 693.6525511853044 538.1532147999815 694.8837413186502 538.1532147999815 Q 696.1149314519959 538.1532147999815 697.3461215853415 536.9220246666357 Q 698.5773117186872 535.6908345332901 698.5773117186872 534.4596443999444 Q 698.5773117186872 533.2284542665989 698.5773117186872 531.9972641332531 Q 698.5773117186872 530.7660739999075 697.3461215853415 529.5348838665618 Q 696.1149314519959 528.303693733216 694.8837413186502 527.0725035998704 Q 693.6525511853044 525.8413134665248 688.7277906519219 522.1477430664877 Q 683.8030301185391 518.4541726664507 676.4158893184651 512.2982219997224 Q 669.028748518391 506.142271332994 659.1792274516256 501.2175107996113 Q 649.3297063848603 496.29275026622867 640.7113754514405 491.36798973284596 Q 632.0930445180209 486.44322919946325 627.1682839846383 483.9808489327719 Q 622.2435234512556 481.51846866608054 621.0123333179099 480.28727853273483 Q 619.7811431845641 479.0560883993892 617.3187629178728 477.82489826604353 Q 614.8563826511815 476.5937081326979 613.6251925178358 476.5937081326979 Q 612.3940023844901 476.5937081326979 612.3940023844901 477.82489826604353 Q 612.3940023844901 479.0560883993892 612.3940023844901 480.28727853273483 Q 612.3940023844901 481.51846866608054 612.3940023844901 482.74965879942624 Q 612.3940023844901 483.98084893277195 614.8563826511815 486.4432291994633 Q 617.3187629178728 488.9056094661546 618.5499530512185 495.06156013288296 Q 619.7811431845641 501.2175107996113 622.2435234512554 506.142271332994 Q 624.7059037179469 511.0670318663767 628.3994741179838 515.9917923997594 Q 632.0930445180209 520.9165529331422 638.2489951847492 527.0725035998705 Q 644.4049458514776 533.2284542665989 649.3297063848603 536.9220246666358 Q 654.254466918243 540.6155950666728 659.1792274516257 544.3091654667098 Q 664.1039879850084 548.0027358667469 667.7975583850455 550.4651161334382 Q 671.4911287850824 552.9274964001295 673.9535090517738 554.1586865334752 Q 676.4158893184651 555.3898766668209 678.8782695851564 556.6210668001665 Q 681.3406498518477 557.8522569335123 683.803030118539 559.083447066858 Q 686.2654103852304 560.3146372002036 687.4966005185761 560.3146372002036 Q 688.7277906519219 560.3146372002036 691.1901709186131 560.3146372002036 Q 693.6525511853044 560.3146372002036 694.8837413186502 557.8522569335123 Q 696.1149314519959 555.3898766668209 697.3461215853415 554.1586865334752 Q 698.5773117186872 552.9274964001295 698.5773117186872 550.4651161334382 Q 698.5773117186872 548.0027358667469 698.5773117186872 546.7715457334012 Q 698.5773117186872 545.5403556000556 698.5773117186872 540.6155950666728 Q 698.5773117186872 535.6908345332901 701.0396919853786 529.5348838665617 Q 703.5020722520699 523.3789331998333 705.9644525187612 515.9917923997593 Q 708.4268327854526 508.6046515996854 708.4268327854526 507.3734614663397 Q 708.4268327854526 506.142271332994 709.6580229187982 504.9110811996483 Q 710.8892130521439 503.6798910663026 712.1204031854895 502.44870093295697 Q 713.3515933188353 501.2175107996113 714.5827834521809 501.2175107996113 Q 715.8139735855266 501.2175107996113 717.0451637188722 503.6798910663027 Q 718.2763538522179 506.142271332994 719.5075439855636 507.3734614663397 Q 720.7387341189093 508.6046515996854 723.2011143856007 511.06703186637674 Q 725.663494652292 513.529412133068 729.3570650523291 519.6853627997964 Q 733.050635452366 525.8413134665248 735.5130157190574 527.0725035998704 Q 737.9753959857487 528.303693733216 739.2065861190945 531.9972641332531 Q 740.4377762524401 535.6908345332901 744.1313466524771 536.9220246666357 Q 747.824917052514 538.1532147999815 749.0561071858597 539.3844049333271 Q 750.2872973192054 540.6155950666728 751.5184874525512 541.8467852000185 Q 752.7496775858968 543.0779753333642 753.9808677192425 544.3091654667098 Q 755.2120578525881 545.5403556000556 756.4432479859338 545.5403556000556 Q 757.6744381192794 545.5403556000556 757.6744381192794 548.0027358667469 Q 757.6744381192794 550.4651161334382 757.6744381192794 551.6963062667838 Q 757.6744381192794 552.9274964001295 757.6744381192794 554.1586865334752 Q 757.6744381192794 555.3898766668209 757.6744381192794 557.8522569335123 Q 757.6744381192794 560.3146372002036 757.6744381192794 561.5458273335493 Q 757.6744381192794 562.7770174668949 757.6744381192794 564.0082076002406 Q 757.6744381192794 565.2393977335862 757.6744381192794 566.470587866932 Q 757.6744381192794 567.7017780002776 757.6744381192794 568.9329681336233 Q 757.6744381192794 570.164158266969 757.6744381192794 572.6265385336603 Q 757.6744381192794 575.0889188003516 757.6744381192794 576.3201089336973 Q 757.6744381192794 577.5512990670429 756.4432479859338 577.5512990670429 Q 755.2120578525881 577.5512990670429 755.2120578525881 578.7824892003887 Q 755.2120578525881 580.0136793337343 753.9808677192425 580.0136793337343 Q 752.7496775858968 580.0136793337343 751.5184874525512 580.0136793337343 Q 750.2872973192054 580.0136793337343 749.0561071858597 580.0136793337343 Q 747.824917052514 580.0136793337343 747.824917052514 577.5512990670429 Q 747.824917052514 575.0889188003516 747.824917052514 572.6265385336603 Q 747.824917052514 570.164158266969 747.824917052514 562.7770174668949 Q 747.824917052514 555.3898766668209 747.824917052514 550.4651161334382 Q 747.824917052514 545.5403556000556 747.824917052514 541.8467852000185 Q 747.824917052514 538.1532147999815 747.824917052514 535.6908345332902 Q 747.824917052514 533.2284542665989 747.824917052514 531.9972641332531 Q 747.824917052514 530.7660739999075 747.824917052514 528.303693733216 Q 747.824917052514 525.8413134665248 747.824917052514 524.610123333179 Q 747.824917052514 523.3789331998333 747.824917052514 522.1477430664877 Q 747.824917052514 520.9165529331422 747.824917052514 518.4541726664507 Q 747.824917052514 515.9917923997593 747.824917052514 514.7606022664137 Q 747.824917052514 513.529412133068 747.824917052514 514.7606022664137 Q 747.824917052514 515.9917923997593 747.824917052514 519.6853627997964 Q 747.824917052514 523.3789331998333 747.824917052514 524.610123333179 Q 747.824917052514 525.8413134665248 747.824917052514 528.303693733216 Q 747.824917052514 530.7660739999075 747.824917052514 533.2284542665988 Q 747.824917052514 535.6908345332901 747.824917052514 536.9220246666357 Q 747.824917052514 538.1532147999815 747.824917052514 540.6155950666728 Q 747.824917052514 543.0779753333642 749.0561071858597 543.0779753333642 Q 750.2872973192054 543.0779753333642 751.5184874525512 543.0779753333642 Q 752.7496775858968 543.0779753333642 752.7496775858968 541.8467852000185 Q 752.7496775858968 540.6155950666728 753.9808677192425 538.1532147999815 Q 755.2120578525881 535.6908345332901 756.4432479859338 530.7660739999073 Q 757.6744381192794 525.8413134665248 757.6744381192794 523.3789331998335 Q 757.6744381192794 520.9165529331422 757.6744381192794 518.4541726664507 Q 757.6744381192794 515.9917923997593 757.6744381192794 513.529412133068 Q 757.6744381192794 511.0670318663767 757.6744381192794 508.6046515996853 Q 757.6744381192794 506.142271332994 757.6744381192794 504.9110811996483 Q 757.6744381192794 503.6798910663026 757.6744381192794 501.2175107996113 Q 757.6744381192794 498.75513053291996 757.6744381192794 497.5239403995743 Q 757.6744381192794 496.29275026622867 757.6744381192794 493.8303699995373 Q 757.6744381192794 491.3679897328459 757.6744381192794 490.13679959950025 Q 757.6744381192794 488.9056094661546 757.6744381192794 487.67441933280895 Q 757.6744381192794 486.44322919946325 756.4432479859338 485.2120390661176 Q 755.2120578525881 483.98084893277195 755.2120578525881 482.74965879942624 Q 755.2120578525881 481.51846866608054 753.9808677192425 481.51846866608054 Q 752.7496775858968 481.51846866608054 752.7496775858968 480.28727853273483 Q 752.7496775858968 479.0560883993892 750.2872973192054 479.0560883993892 Q 747.824917052514 479.0560883993892 745.3625367858227 479.0560883993892 Q 742.9001565191314 479.0560883993892 740.43777625244 480.28727853273483 Q 737.9753959857487 481.51846866608054 733.0506354523661 483.9808489327719 Q 728.1258749189834 486.44322919946325 703.5020722520699 492.5991798661916 Q 678.8782695851564 498.75513053291996 664.1039879850084 499.98632066626567 Q 649.3297063848603 501.2175107996113 640.7113754514405 501.2175107996113 Q 632.0930445180209 501.2175107996113 625.9370938512925 501.2175107996113 Q 619.7811431845641 501.2175107996113 617.3187629178728 501.2175107996113 Q 614.8563826511815 501.2175107996113 612.3940023844902 501.2175107996113 Q 609.9316221177988 501.2175107996113 608.7004319844532 501.2175107996113 Q 607.4692418511074 501.2175107996113 606.2380517177618 501.2175107996113 Q 605.0068615844161 501.2175107996113 603.7756714510705 502.44870093295697 Q 602.5444813177248 503.6798910663026 602.5444813177248 504.9110811996483 Q 602.5444813177248 506.142271332994 602.5444813177248 507.3734614663397 Q 602.5444813177248 508.6046515996854 603.7756714510705 509.83584173303103 Q 605.0068615844161 511.0670318663767 606.2380517177618 511.0670318663767 Q 607.4692418511074 511.0670318663767 608.7004319844532 511.0670318663767 Q 609.9316221177988 511.0670318663767 611.1628122511445 511.0670318663767 Q 612.3940023844901 511.0670318663767 613.6251925178358 511.0670318663767 Q 614.8563826511815 511.0670318663767 616.0875727845272 512.2982219997224 Q 617.3187629178728 513.529412133068 621.0123333179099 514.7606022664137 Q 624.7059037179469 515.9917923997593 630.8618543846752 515.9917923997593 Q 637.0178050514036 515.9917923997593 649.3297063848603 515.9917923997593 Q 661.641607718317 515.9917923997593 670.2599386517368 518.4541726664507 Q 678.8782695851564 520.9165529331422 683.8030301185391 520.9165529331422 Q 688.7277906519219 520.9165529331422 692.4213610519589 522.1477430664877 Q 696.1149314519959 523.3789331998333 698.5773117186873 523.3789331998333 Q 701.0396919853786 523.3789331998333 703.5020722520699 523.3789331998333 Q 705.9644525187612 523.3789331998333 708.4268327854525 524.610123333179 Q 710.8892130521439 525.8413134665248 713.3515933188353 525.8413134665248 L 715.8397735855266 525.8413134665248" stroke-linecap="round" />
</g>
<g transform="matrix(1 0 0 1 803.06 529.54)"  >
<path style="stroke: rgb(0,0,0); stroke-width: 30; stroke-dasharray: none; stroke-linecap: round; stroke-dashoffset: 0; stroke-linejoin: round; stroke-miterlimit: 10; fill: none; fill-rule: nonzero; opacity: 1;" vector-effect="non-scaling-stroke"  transform=" translate(-803.06, -529.53)" d="M 600.0521010510334 530.7360739999075 Q 600.0821010510334 530.7660739999075 606.2380517177618 557.8522569335123 Q 612.3940023844901 584.938439867117 616.0875727845271 600.9439116006108 Q 619.7811431845641 616.9493833341045 628.3994741179838 626.7989044008698 Q 637.0178050514036 636.6484254676352 638.2489951847492 637.8796156009809 Q 639.480185318095 639.1108057343265 644.4049458514776 640.3419958676723 Q 649.3297063848603 641.5731860010179 654.254466918243 640.3419958676723 Q 659.1792274516257 639.1108057343265 667.7975583850455 631.7236649342525 Q 676.4158893184651 624.3365241341785 687.4966005185761 613.2558129340674 Q 698.5773117186872 602.1751017339564 705.9644525187612 589.8632004004996 Q 713.3515933188353 577.5512990670429 715.8139735855266 567.7017780002776 Q 718.2763538522179 557.8522569335123 719.5075439855636 545.5403556000556 Q 720.7387341189093 533.2284542665989 718.2763538522179 520.9165529331422 Q 715.8139735855266 508.6046515996854 712.1204031854895 502.448700932957 Q 708.4268327854526 496.29275026622867 699.8085018520328 486.4432291994633 Q 691.1901709186131 476.5937081326979 688.7277906519219 472.9001377326608 Q 686.2654103852304 469.2065673326238 681.3406498518477 466.74418706593246 Q 676.4158893184651 464.28180679924117 672.7223189184281 460.5882363992041 Q 669.028748518391 456.8946659991671 666.5663682516997 456.8946659991671 Q 664.1039879850084 456.8946659991671 661.6416077183171 456.8946659991671 Q 659.1792274516257 456.8946659991671 657.9480373182801 456.8946659991671 Q 656.7168471849343 456.8946659991671 656.7168471849343 460.5882363992041 Q 656.7168471849343 464.28180679924117 656.7168471849343 476.5937081326979 Q 656.7168471849343 488.9056094661546 660.4104175849714 517.2229825331051 Q 664.1039879850084 545.5403556000556 680.1094597185022 586.1696300004627 Q 696.1149314519959 626.7989044008698 708.4268327854526 640.3419958676723 Q 720.7387341189093 653.8850873344746 750.2872973192054 662.5034182678944 Q 779.8358605195016 671.1217492013141 846.3201277201679 658.8098478678573 Q 912.8043949208342 646.4979465344006 943.584148254476 637.879615600981 Q 974.3639015881178 629.2612846675612 985.4446127882288 621.8741438674872 Q 996.5253239883399 614.4870030674131 1000.2188943883768 612.0246228007218 Q 1003.9124647884138 609.5622425340305 1005.1436549217594 607.0998622673392 Q 1006.3748450551052 604.6374820006478 1005.1436549217594 599.712721467265 Q 1003.9124647884138 594.7879609338825 996.5253239883398 592.325580667191 Q 989.1381831882659 589.8632004004996 966.9767607880437 589.8632004004996 Q 944.8153383878216 589.8632004004996 917.7291554542169 597.2503412005738 Q 890.6429725206121 604.6374820006478 847.5513178535136 624.3365241341785 Q 804.459663186415 644.0355662677093 787.2230013195756 660.0410380012031 Q 769.9863394527362 676.0465097346968 761.3680085193165 684.6648406681165 Q 752.7496775858968 693.2831716015362 747.8249170525141 698.2079321349188 Q 742.9001565191314 703.1326926683015 740.43777625244 708.0574532016842 Q 737.9753959857487 712.9822137350669 736.744205852403 714.2134038684126 Q 735.5130157190573 715.4445940017582 734.2818255857117 715.4445940017582 Q 733.050635452366 715.4445940017582 733.050635452366 714.2134038684126 Q 733.050635452366 712.9822137350669 734.2818255857117 708.0574532016842 Q 735.5130157190573 703.1326926683015 749.0561071858597 668.6593689346228 Q 762.5991986526622 634.1860452009439 771.2175295860818 602.1751017339565 Q 779.8358605195016 570.164158266969 785.9918111862299 541.8467852000185 Q 792.1477618529583 513.529412133068 792.1477618529583 498.75513053292 Q 792.1477618529583 483.98084893277195 792.1477618529583 480.28727853273494 Q 792.1477618529583 476.5937081326979 789.6853815862669 475.36251799935224 Q 787.2230013195756 474.13132786600653 785.9918111862298 474.13132786600653 Q 784.7606210528842 474.13132786600653 785.9918111862298 476.5937081326979 Q 787.2230013195756 479.0560883993892 787.2230013195756 490.13679959950025 Q 787.2230013195756 501.2175107996113 787.2230013195756 527.0725035998704 Q 787.2230013195756 552.9274964001295 790.9165717196126 567.7017780002776 Q 794.6101421196496 582.4760596004257 795.8413322529952 584.938439867117 Q 797.0725223863409 587.4008201338083 801.9972829197236 586.1696300004627 Q 806.9220434531063 584.938439867117 826.621085586637 560.3146372002036 Q 846.3201277201678 535.6908345332901 863.5567895870072 508.6046515996853 Q 880.7934514538466 481.51846866608054 888.1805922539206 467.9753771992781 Q 895.5677330539947 454.43228573247575 895.5677330539947 453.2010955991301 Q 895.5677330539947 451.96990546578445 895.5677330539947 454.43228573247575 Q 895.5677330539947 456.8946659991671 895.5677330539947 482.74965879942624 Q 895.5677330539947 508.6046515996854 895.5677330539947 534.4596443999445 Q 895.5677330539947 560.3146372002036 895.5677330539947 573.857728667006 Q 895.5677330539947 587.4008201338083 895.5677330539947 592.325580667191 Q 895.5677330539947 597.2503412005738 895.5677330539947 598.4815313339194 Q 895.5677330539947 599.712721467265 895.5677330539947 598.4815313339194 Q 895.5677330539947 597.2503412005738 895.5677330539947 596.0191510672281 Q 895.5677330539947 594.7879609338825 894.336542920649 592.325580667191 Q 893.1053527873033 589.8632004004996 889.4117823872664 586.1696300004627 Q 885.7182119872293 582.4760596004257 884.4870218538837 580.0136793337343 Q 883.255831720538 577.5512990670429 880.7934514538467 576.3201089336973 Q 878.3310711871554 575.0889188003516 877.0998810538097 573.857728667006 Q 875.868690920464 572.6265385336603 874.6375007871184 571.3953484003147 Q 873.4063106537726 570.164158266969 872.1751205204268 570.164158266969 Q 870.9439303870812 570.164158266969 869.7127402537355 570.164158266969 Q 868.4815501203899 570.164158266969 867.2503599870442 568.9329681336233 Q 866.0191698536987 567.7017780002776 866.0191698536987 566.470587866932 Q 866.0191698536987 565.2393977335862 864.787979720353 560.3146372002036 Q 863.5567895870073 555.3898766668209 853.7072685202419 543.0779753333642 Q 843.8577474534765 530.7660739999075 836.4706066534025 522.1477430664877 Q 829.0834658533284 513.529412133068 824.1587053199457 509.83584173303103 Q 819.233944786563 506.142271332994 815.5403743865261 506.142271332994 Q 811.846803986489 506.142271332994 811.846803986489 515.9917923997593 Q 811.846803986489 525.8413134665248 813.0779941198348 555.3898766668209 Q 814.3091842531804 584.938439867117 815.5403743865261 612.0246228007218 Q 816.7715645198717 639.1108057343265 818.0027546532174 655.1162774678203 Q 819.233944786563 671.1217492013141 820.4651349199087 672.3529393346598 Q 821.6963250532543 673.5841294680055 821.6963250532543 674.8153196013511 Q 821.6963250532543 676.0465097346968 821.6963250532543 669.8905590679683 Q 821.6963250532543 663.7346084012399 824.1587053199457 639.1108057343265 Q 826.6210855866372 614.4870030674131 827.8522757199828 560.3146372002036 Q 829.0834658533284 506.142271332994 829.0834658533284 492.5991798661916 Q 829.0834658533284 479.0560883993892 829.0834658533284 472.9001377326608 Q 829.0834658533284 466.74418706593246 829.0834658533284 465.5129969325868 Q 829.0834658533284 464.28180679924117 829.0834658533284 465.5129969325868 Q 829.0834658533284 466.74418706593246 830.3146559866741 469.2065673326239 Q 831.5458461200197 471.66894759931523 836.4706066534025 481.5184686660806 Q 841.3953671867853 491.3679897328459 848.7825079868592 503.6798910663026 Q 856.1696487869332 515.9917923997593 858.6320290536246 525.8413134665248 Q 861.0944093203159 535.6908345332901 862.3255994536617 536.9220246666357 Q 863.5567895870073 538.1532147999815 864.787979720353 538.1532147999815 Q 866.0191698536987 538.1532147999815 866.0191698536987 536.9220246666357 Q 866.0191698536987 535.6908345332901 866.0191698536987 529.5348838665617 Q 866.0191698536987 523.3789331998333 866.0191698536987 504.91108119964827 Q 866.0191698536987 486.44322919946325 859.8632191869704 464.28180679924117 Q 853.707268520242 442.12038439901903 852.4760783868962 434.733243598945 Q 851.2448882535506 427.346102798871 850.0136981202049 427.346102798871 Q 848.7825079868592 427.346102798871 848.7825079868592 429.8084830655623 Q 848.7825079868592 432.27086333225367 848.7825079868592 434.733243598945 Q 848.7825079868592 437.1956238656363 854.9384586535875 455.6634758658214 Q 861.0944093203159 474.13132786600653 867.2503599870442 499.98632066626567 Q 873.4063106537726 525.8413134665248 877.0998810538097 540.6155950666728 Q 880.7934514538466 555.3898766668209 882.0246415871923 560.3146372002036 Q 883.255831720538 565.2393977335862 883.255831720538 568.9329681336233 Q 883.255831720538 572.6265385336603 883.255831720538 571.3953484003147 Q 883.255831720538 570.164158266969 883.255831720538 567.7017780002776 Q 883.255831720538 565.2393977335862 882.0246415871923 556.6210668001665 Q 880.7934514538466 548.0027358667469 879.562261320501 544.3091654667098 Q 878.3310711871554 540.6155950666728 877.0998810538097 538.1532147999815 Q 875.868690920464 535.6908345332901 875.868690920464 536.9220246666357 Q 875.868690920464 538.1532147999815 877.0998810538097 546.7715457334011 Q 878.3310711871554 555.3898766668209 883.255831720538 580.0136793337343 Q 888.1805922539207 604.6374820006478 891.8741626539577 616.9493833341045 Q 895.5677330539947 629.2612846675612 895.5677330539947 636.6484254676352 Q 895.5677330539947 644.0355662677093 895.5677330539947 645.266756401055 Q 895.5677330539947 646.4979465344006 895.5677330539947 647.7291366677463 Q 895.5677330539947 648.9603268010919 895.5677330539947 647.7291366677463 Q 895.5677330539947 646.4979465344006 889.4117823872664 620.6429537341415 Q 883.255831720538 594.7879609338825 863.5567895870072 551.696306266784 Q 843.8577474534765 508.6046515996854 814.3091842531803 453.2010955991301 Q 784.7606210528842 397.7975395985749 771.2175295860818 378.09849746504415 Q 757.6744381192794 358.39945533151337 752.7496775858967 351.0123145314393 Q 747.824917052514 343.6251737313653 746.5937269191684 343.6251737313653 L 745.3325367858228 343.6251737313653" stroke-linecap="round" />
</g>
<g transform="matrix(1 0 0 1 697.35 466.99)"  >
<path style="stroke: rgb(0,0,0); stroke-width: 83.6; stroke-dasharray: none; stroke-linecap: round; stroke-dashoffset: 0; stroke-linejoin: round; stroke-miterlimit: 10; fill: none; fill-rule: nonzero; opacity: 1;" vector-effect="non-scaling-stroke"  transform=" translate(-697.35, -466.99)" d="M 676.4994893184652 565.3229977335862 Q 676.4158893184651 565.2393977335862 676.4158893184651 560.3146372002036 Q 676.4158893184651 555.3898766668209 672.7223189184281 535.6908345332902 Q 669.028748518391 515.9917923997593 666.5663682516997 497.52394039957426 Q 664.1039879850084 479.0560883993892 660.4104175849714 469.2065673326239 Q 656.7168471849343 459.3570462658585 653.0232767848972 456.89466599916716 Q 649.3297063848603 454.43228573247575 646.8673261181689 451.96990546578445 Q 644.4049458514776 449.5075251990931 644.4049458514776 448.27633506574745 Q 644.4049458514776 447.0451449324018 641.9425655847863 447.0451449324018 Q 639.480185318095 447.0451449324018 639.480185318095 453.20109559913016 Q 639.480185318095 459.3570462658585 635.7866149180579 474.1313278660066 Q 632.0930445180209 488.9056094661546 632.0930445180209 530.7660739999075 Q 632.0930445180209 572.6265385336603 633.3242346513666 588.6320102671541 Q 634.5554247847123 604.6374820006478 637.0178050514037 619.4117636007959 Q 639.480185318095 634.1860452009439 641.9425655847863 641.5731860010179 Q 644.4049458514776 648.9603268010919 646.8673261181689 653.8850873344746 Q 649.3297063848603 658.8098478678573 650.5608965182059 662.5034182678944 Q 651.7920866515517 666.1969886679314 651.7920866515517 667.428178801277 Q 651.7920866515517 668.6593689346228 653.0232767848973 669.8905590679684 Q 654.254466918243 671.1217492013141 654.254466918243 669.8905590679684 Q 654.254466918243 668.6593689346228 654.254466918243 667.428178801277 Q 654.254466918243 666.1969886679314 651.7920866515517 662.5034182678944 Q 649.3297063848603 658.8098478678573 622.2435234512554 629.2612846675612 Q 595.1573405176507 599.712721467265 572.9959181174286 580.0136793337343 Q 550.8344957172066 560.3146372002036 532.3666437170215 546.7715457334012 Q 513.8987917168364 533.2284542665989 508.9740311834537 529.5348838665618 Q 504.04927065007104 525.8413134665248 502.81808051672533 525.8413134665248 Q 501.5868903833796 525.8413134665248 501.5868903833796 527.0725035998704 Q 501.5868903833796 528.303693733216 505.28046078341663 536.9220246666358 Q 508.9740311834537 545.5403556000556 520.0547423835648 565.2393977335863 Q 531.1354535836758 584.938439867117 537.2914042504042 592.325580667191 Q 543.4473549171325 599.712721467265 547.1409253171696 607.0998622673391 Q 550.8344957172066 614.4870030674131 550.8344957172066 615.7181932007588 Q 550.8344957172066 616.9493833341045 550.8344957172066 618.1805734674501 Q 550.8344957172066 619.4117636007959 552.0656858505522 620.6429537341415 Q 553.2968759838978 621.8741438674872 553.2968759838978 623.1053340008328 Q 553.2968759838978 624.3365241341785 553.2968759838978 625.5677142675241 Q 553.2968759838978 626.7989044008698 553.2968759838978 628.0300945342156 Q 553.2968759838978 629.2612846675612 554.5280661172435 630.4924748009068 Q 555.7592562505893 631.7236649342526 556.9904463839349 635.4172353342896 Q 558.2216365172806 639.1108057343265 559.4528266506263 641.5731860010179 Q 560.684016783972 644.0355662677093 560.684016783972 648.9603268010919 Q 560.684016783972 653.8850873344746 561.9152069173176 657.5786577345117 Q 563.1463970506633 661.2722281345488 565.6087773173547 666.1969886679315 Q 568.071157584046 671.1217492013141 569.3023477173916 672.3529393346598 Q 570.5335378507373 673.5841294680055 572.9959181174286 676.0465097346968 Q 575.45829838412 678.5088900013881 576.6894885174656 680.9712702680795 Q 577.9206786508113 683.4336505347708 579.1518687841569 683.4336505347708 Q 580.3830589175027 683.4336505347708 580.3830589175027 682.2024604014251 Q 580.3830589175027 680.9712702680795 581.6142490508483 676.0465097346968 Q 582.845439184194 671.1217492013141 582.845439184194 651.4227070677833 Q 582.845439184194 631.7236649342526 581.6142490508483 584.938439867117 Q 580.3830589175027 538.1532147999815 580.3830589175027 443.3515745323647 Q 580.3830589175027 348.54993426474795 584.0766293175398 310.3830401310321 Q 587.7701997175767 272.2161459973163 587.7701997175767 264.8290051972423 Q 587.7701997175767 257.4418643971683 589.0013898509224 253.74829399713124 Q 590.232579984268 250.0547235970942 590.232579984268 251.28591373043986 Q 590.232579984268 252.51710386378554 590.232579984268 253.7482939971312 Q 590.232579984268 254.97948413047692 589.0013898509224 254.97948413047692 Q 587.7701997175767 254.97948413047692 586.539009584231 256.2106742638226 Q 585.3078194508854 257.4418643971683 585.3078194508854 258.6730545305139 Q 585.3078194508854 259.9042446638596 584.0766293175398 259.9042446638596 Q 582.845439184194 259.9042446638596 581.6142490508483 273.44733613066194 Q 580.3830589175027 286.99042759746436 575.45829838412 320.2325611977975 Q 570.5335378507373 353.47469479813066 568.071157584046 401.4911099986119 Q 565.6087773173546 449.5075251990931 566.8399674507002 499.98632066626567 Q 568.071157584046 550.4651161334382 570.5335378507373 573.857728667006 Q 572.9959181174287 597.2503412005738 577.9206786508114 613.2558129340675 Q 582.845439184194 629.2612846675612 585.3078194508853 639.1108057343265 Q 587.7701997175767 648.9603268010919 590.2325799842681 651.4227070677832 Q 592.6949602509594 653.8850873344746 593.9261503843051 657.5786577345117 Q 595.1573405176507 661.2722281345488 598.8509109176878 662.5034182678944 Q 602.5444813177248 663.7346084012399 606.2380517177619 663.7346084012399 Q 609.9316221177988 663.7346084012399 616.0875727845272 663.7346084012399 Q 622.2435234512556 663.7346084012399 623.4747135846012 663.7346084012399 Q 624.7059037179469 663.7346084012399 625.9370938512925 663.7346084012399 Q 627.1682839846383 663.7346084012399 629.6306642513296 663.7346084012399 Q 632.0930445180209 663.7346084012399 635.7866149180579 660.041038001203 Q 639.480185318095 656.347467601166 661.6416077183171 624.3365241341785 Q 683.8030301185391 592.325580667191 699.8085018520328 568.9329681336233 Q 715.8139735855266 545.5403556000556 728.1258749189833 520.9165529331422 Q 740.4377762524401 496.29275026622867 744.1313466524771 488.9056094661546 Q 747.824917052514 481.51846866608054 747.824917052514 479.0560883993892 Q 747.824917052514 476.5937081326979 749.0561071858597 475.36251799935224 Q 750.2872973192054 474.13132786600653 751.5184874525512 472.9001377326609 Q 752.7496775858968 471.66894759931523 753.9808677192425 470.4377574659695 Q 755.2120578525881 469.2065673326238 756.4432479859338 467.9753771992781 Q 757.6744381192794 466.74418706593246 758.9056282526251 464.28180679924117 Q 760.1368183859707 461.8194265325498 768.7551493193905 456.89466599916716 Q 777.3734802528103 451.96990546578445 785.9918111862299 448.2763350657474 Q 794.6101421196496 444.5827646657104 804.459663186415 437.1956238656363 Q 814.3091842531804 429.8084830655623 816.7715645198717 428.57729293221666 Q 819.233944786563 427.346102798871 821.6963250532544 427.346102798871 Q 824.1587053199457 427.346102798871 826.621085586637 426.1149126655253 Q 829.0834658533284 424.8837225321796 827.8522757199828 426.1149126655253 Q 826.6210855866372 427.346102798871 826.6210855866372 429.8084830655623 Q 826.6210855866372 432.27086333225367 821.6963250532544 439.65800413232773 Q 816.7715645198717 447.0451449324018 801.9972829197236 467.9753771992782 Q 787.2230013195756 488.9056094661546 779.8358605195015 504.9110811996484 Q 772.4487197194275 520.9165529331422 763.8303887860078 538.1532147999815 Q 755.2120578525881 555.3898766668209 752.7496775858967 565.2393977335862 Q 750.2872973192054 575.0889188003516 745.3625367858228 589.8632004004996 Q 740.4377762524401 604.6374820006478 734.2818255857118 624.3365241341785 Q 728.1258749189834 644.0355662677093 728.1258749189834 648.9603268010919 Q 728.1258749189834 653.8850873344746 728.1258749189834 658.8098478678573 Q 728.1258749189834 663.7346084012399 728.1258749189834 666.1969886679314 Q 728.1258749189834 668.6593689346228 728.1258749189834 669.8905590679684 Q 728.1258749189834 671.1217492013141 728.1258749189834 669.8905590679684 Q 728.1258749189834 668.6593689346228 731.8194453190204 661.2722281345486 Q 735.5130157190573 653.8850873344746 742.9001565191313 640.3419958676723 Q 750.2872973192054 626.7989044008698 779.8358605195015 578.7824892003887 Q 809.3844237197976 530.7660739999075 827.8522757199827 504.9110811996483 Q 846.3201277201678 479.0560883993892 852.4760783868961 469.2065673326239 Q 858.6320290536245 459.3570462658585 861.0944093203159 458.1258561325128 Q 863.5567895870073 456.8946659991671 863.5567895870073 455.6634758658214 Q 863.5567895870073 454.43228573247575 864.787979720353 451.96990546578445 Q 866.0191698536987 449.5075251990931 866.0191698536987 450.7387153324388 Q 866.0191698536987 451.96990546578445 867.2503599870442 453.2010955991301 Q 868.4815501203899 454.43228573247575 868.4815501203899 456.89466599916716 Q 868.4815501203899 459.3570462658585 872.175120520427 470.4377574659695 Q 875.868690920464 481.51846866608054 877.0998810538097 488.9056094661546 Q 878.3310711871554 496.29275026622867 882.0246415871924 503.6798910663027 Q 885.7182119872293 511.0670318663767 886.9494021205751 519.6853627997964 Q 888.1805922539207 528.303693733216 889.4117823872664 531.9972641332531 Q 890.6429725206121 535.6908345332901 891.8741626539577 540.6155950666728 Q 893.1053527873033 545.5403556000556 893.1053527873033 550.4651161334382 Q 893.1053527873033 555.3898766668209 893.1053527873033 560.3146372002036 Q 893.1053527873033 565.2393977335862 890.642972520612 570.1641582669689 Q 888.1805922539207 575.0889188003516 885.7182119872293 580.0136793337343 Q 883.255831720538 584.938439867117 880.7934514538467 588.6320102671541 Q 878.3310711871554 592.325580667191 875.868690920464 597.2503412005738 Q 873.4063106537726 602.1751017339564 872.1751205204268 603.4062918673021 Q 870.9439303870812 604.6374820006478 869.7127402537355 607.0998622673392 Q 868.4815501203899 609.5622425340305 867.2503599870442 610.7934326673761 Q 866.0191698536987 612.0246228007218 866.0191698536987 613.2558129340674 Q 866.0191698536987 614.4870030674131 864.787979720353 615.7181932007588 Q 863.5567895870073 616.9493833341045 862.3255994536617 616.9493833341045 Q 861.0944093203159 616.9493833341045 859.8632191869701 616.9493833341045 Q 858.6320290536245 616.9493833341045 857.4008389202788 614.4870030674131 Q 856.1696487869332 612.0246228007218 854.9384586535875 608.3310524006847 Q 853.707268520242 604.6374820006478 852.4760783868962 602.1751017339564 Q 851.2448882535506 599.712721467265 851.2448882535506 597.2503412005738 Q 851.2448882535506 594.7879609338825 850.0136981202049 591.0943905338454 Q 848.7825079868592 587.4008201338083 848.7825079868592 586.1696300004627 Q 848.7825079868592 584.938439867117 848.7825079868592 582.4760596004257 Q 848.7825079868592 580.0136793337343 848.7825079868592 578.7824892003887 Q 848.7825079868592 577.5512990670429 848.7825079868592 576.3201089336973 Q 848.7825079868592 575.0889188003516 848.7825079868592 572.6265385336603 Q 848.7825079868592 570.164158266969 848.7825079868592 567.7017780002776 Q 848.7825079868592 565.2393977335862 848.7825079868592 564.0082076002406 Q 848.7825079868592 562.7770174668949 848.7825079868592 561.5458273335493 Q 848.7825079868592 560.3146372002036 848.7825079868592 557.8522569335123 Q 848.7825079868592 555.3898766668209 848.7825079868592 554.1586865334752 Q 848.7825079868592 552.9274964001295 848.7825079868592 550.4651161334382 Q 848.7825079868592 548.0027358667469 848.7825079868592 546.7715457334012 Q 848.7825079868592 545.5403556000556 848.7825079868592 544.3091654667098 Q 848.7825079868592 543.0779753333642 847.5513178535134 540.6155950666728 Q 846.3201277201678 538.1532147999815 846.3201277201678 536.9220246666357 Q 846.3201277201678 535.6908345332901 846.3201277201678 533.2284542665988 Q 846.3201277201678 530.7660739999075 845.0889375868221 529.5348838665618 Q 843.8577474534765 528.303693733216 843.8577474534765 527.0725035998704 Q 843.8577474534765 525.8413134665248 841.3953671867852 525.8413134665248 Q 838.9329869200939 525.8413134665248 837.7017967867482 525.8413134665248 Q 836.4706066534025 525.8413134665248 836.4706066534025 524.610123333179 Q 836.4706066534025 523.3789331998333 834.0082263867112 523.3789331998333 Q 831.5458461200197 523.3789331998333 830.3146559866741 523.3789331998333 Q 829.0834658533284 523.3789331998333 827.8522757199828 523.3789331998333 L 826.5374855866371 523.3789331998333" stroke-linecap="round" />
</g>
<g transform="matrix(1 0 0 1 611.91 540)" style="" id="540cc288-ee88-4ec4-8057-7b209b265169"  >
		<text xml:space="preserve" font-family="Alegreya" font-size="80" font-style="normal" font-weight="700" style="stroke: none; stroke-width: 1; stroke-dasharray: none; stroke-linecap: butt; stroke-dashoffset: 0; stroke-linejoin: miter; stroke-miterlimit: 4; fill: rgb(236,234,234); fill-rule: nonzero; opacity: 1; white-space: pre;" ><tspan x="-132.44" y="25.13" >carsbnb</tspan></text>
</g>
</svg>